<svg id="e2IbTxMgGVy1" xmlns="http://www.w3.org/2000/svg" xmlns:xlink="http://www.w3.org/1999/xlink" viewBox="0 0 270 270" shape-rendering="geometricPrecision" text-rendering="geometricPrecision"><style>#e2IbTxMgGVy5_to {animation: e2IbTxMgGVy5_to__to 3000ms linear infinite normal forwards}@keyframes e2IbTxMgGVy5_to__to { 0% {transform: translate(136.55563px,119.450001px)} 16.666667% {transform: translate(136.55563px,78.450001px)} 33.333333% {transform: translate(136.55563px,119.450001px)} 50% {transform: translate(136.55563px,78.450001px)} 66.666667% {transform: translate(136.55563px,119.450001px)} 100% {transform: translate(136.55563px,119.450001px)}}</style><defs><linearGradient id="e2IbTxMgGVy4-fill" x1="-83.6533" y1="-97.719" x2="89.8836" y2="104.997" spreadMethod="pad" gradientUnits="userSpaceOnUse"><stop id="e2IbTxMgGVy4-fill-0" offset="22.04%" stop-color="rgb(14,86,164)"></stop><stop id="e2IbTxMgGVy4-fill-1" offset="40.68%" stop-color="rgb(0,100,175)"></stop><stop id="e2IbTxMgGVy4-fill-2" offset="79.88%" stop-color="rgb(0,135,203)"></stop><stop id="e2IbTxMgGVy4-fill-3" offset="100%" stop-color="rgb(0,154,217)"></stop></linearGradient></defs><g id="e2IbTxMgGVy2" display="none"><image id="e2IbTxMgGVy3" width="270" height="270" xlink:href="DD934A7046A03A76.png" preserveAspectRatio="xMidYMid meet" transform="matrix(1 0 0 1 0.2654 0.4383)"></image></g><circle id="e2IbTxMgGVy4" r="133.4" transform="matrix(1 0 0 1 135 135)" fill="url(#e2IbTxMgGVy4-fill)" stroke="none" stroke-width="1"></circle><g id="e2IbTxMgGVy5_to" transform="translate(136.55563,119.450001)"><path id="e2IbTxMgGVy5" d="M173.8,129.2L167.9,122.9C166.1,121,163,120.8,161.1,122.7L145.8,137L145.8,75.1C145.8,72.4,143.6,70.3,141,70.3L132.4,70.3C129.7,70.3,127.6,72.5,127.6,75.1L127.6,137.2L112,122.7C110.1,120.9,107,121,105.2,122.9L99.3,129.2C97.5,131.1,97.6,134.2,99.5,136L133.1,167.3C134.1,168.2,135.3,168.6,136.5,168.6C136.5,168.6,136.5,168.6,136.6,168.6C136.6,168.6,136.6,168.6,136.7,168.6C137.9,168.6,139.1,168.2,140.1,167.3L173.7,136C175.5,134.2,175.6,131.2,173.8,129.2Z" transform="translate(-136.55563,-119.450001)" fill="rgb(255,255,255)" stroke="none" stroke-width="1"></path></g><path id="e2IbTxMgGVy6" d="M82.8,198.7L82.8,190.1C82.8,187.4,85,185.3,87.6,185.3L185.4,185.3C188.1,185.3,190.2,187.5,190.2,190.1L190.2,198.7C190.2,201.4,188,203.5,185.4,203.5L87.7,203.5C85,203.5,82.8,201.3,82.8,198.7Z" fill="rgb(255,255,255)" stroke="none" stroke-width="1"></path></svg>